# xmcd
#
# Track frame offsets:
#	150
#	24309
#	40641
#	58575
#	80291
#	81253
#	100580
#	122641
#	139492
#	158812
#	173570
#
# Disc length: 2497 seconds
#
# Revision: 1
# Processed by: cddbd v1.4PL0 Copyright (c) Steve Scherf et al.
# Submitted via: audiograbber 1.81.01
#
DISCID=7d09bf0b
DTITLE=Rogers, Robin - Time for Myself
DYEAR=2002
DGENRE=Blues
TTITLE0=Time for Myself
TTITLE1=If I'm Waitin'
TTITLE2=Come Together
TTITLE3=Guilty
TTITLE4=A Lot of Whiskey
TTITLE5=Long John Blues
TTITLE6=Don't Walk Away
TTITLE7=You Say You're Leavin'
TTITLE8=Unconditional Love
TTITLE9=You Made Your Bed
TTITLE10=Gotta Let You Go
EXTD=
EXTT0=
EXTT1=
EXTT2=
EXTT3=
EXTT4=
EXTT5=
EXTT6=
EXTT7=
EXTT8=
EXTT9=
EXTT10=
PLAYORDER=
